<svg xmlns="http://www.w3.org/2000/svg" viewBox="0 0 85 48" aria-hidden="true">
  <defs>
    <linearGradient id="upload-bars-gradient" gradientUnits="userSpaceOnUse" x1="0" y1="0" x2="38" y2="0">
      <stop offset="0%"   stop-color="rgb(20 184 166)" />
      <stop offset="25%"  stop-color="rgb(2 132 199)" />
      <stop offset="45%"  stop-color="rgb(56 189 248)" />
      <stop offset="58%"  stop-color="rgb(99 102 241)" />
      <stop offset="68%"  stop-color="rgb(129 140 248)" />
      <stop offset="96%"  stop-color="rgb(79 70 229)" />
    </linearGradient>
  </defs>
  <g fill="url(#upload-bars-gradient)">
    <path d="M0,48 L0,2 Q0,0 2,0 L8,0 Q10,0 10,2 L10,48 Z" />
    <path d="M14,48 L14,23 Q14,21 16,21 L22,21 Q24,21 24,23 L24,48 Z" />
    <path d="M28,48 L28,2 Q28,0 30,0 L36,0 Q38,0 38,2 L38,48 Z" />
  </g>
  <path d="M41.38,24.08 L41.38,2.08  A22.2,22 0 0 1 57.08,8.52  Z" fill="rgb(56 189 248)" />
  <path d="M41.92,24.62 L57.62,9.06  A22.2,22 0 0 1 64.12,24.62 Z" fill="rgb(230 28 160)" />
  <path d="M41.92,25.38 L64.12,25.38 A22.2,22 0 0 1 57.62,40.94 Z" fill="rgb(129 140 248)" />
  <path d="M41.38,25.92 L57.08,41.48 A22.2,22 0 0 1 41.38,47.92 Z" fill="rgb(99 102 241)" />
</svg>
